<?xml version="1.0" standalone="no"?><!DOCTYPE svg PUBLIC "-//W3C//DTD SVG 1.1//EN" "http://www.w3.org/Graphics/SVG/1.1/DTD/svg11.dtd"><svg t="1540306827576" class="icon" style="" viewBox="0 0 1024 1024" version="1.1" xmlns="http://www.w3.org/2000/svg" p-id="2697" xmlns:xlink="http://www.w3.org/1999/xlink" width="81" height="81"><defs><style type="text/css"></style></defs><path d="M942.4128 426.6752h-345.088V81.5872C597.3248 36.5312 559.1808 0 512 0c-47.2064 0-85.3248 36.5312-85.3248 81.6128v345.0624H81.5872C36.5312 426.6752 0 464.8192 0 512c0 47.2064 36.5312 85.3248 81.6128 85.3248h345.0624v345.088c0 45.056 38.144 81.5872 85.3248 81.5872 47.2064 0 85.3248-36.5312 85.3248-81.6128V597.3504h345.088c45.056 0 81.5872-38.144 81.5872-85.3248 0-47.2064-36.5312-85.3248-81.6128-85.3248z" p-id="2698" fill="#1296db"></path></svg>