<?xml version="1.0" standalone="no"?><!DOCTYPE svg PUBLIC "-//W3C//DTD SVG 1.1//EN" "http://www.w3.org/Graphics/SVG/1.1/DTD/svg11.dtd"><svg t="1540308009412" class="icon" style="" viewBox="0 0 1024 1024" version="1.1" xmlns="http://www.w3.org/2000/svg" p-id="11279" xmlns:xlink="http://www.w3.org/1999/xlink" width="81" height="81"><defs><style type="text/css"></style></defs><path d="M861.9 427.4c79.6-89.3 80.7-222.4 0.1-303.1-40.7-40.7-96.1-61.8-155.7-59.9-59 2-115 26.7-157.7 69.4L180.3 502C129.8 552.5 102 619.9 102 691.7s27.8 139.2 78.3 189.7 117.9 78.3 189.7 78.3 139.3-27.8 189.8-78.3l170-170c10.9-10.9 10.9-28.6 0-39.6s-28.6-10.9-39.6 0l-170 170c-39.9 39.9-93.3 61.9-150.2 61.9s-110.2-22-150.2-61.9C179.9 802 158 748.6 158 691.7s22-110.3 61.9-150.2l368.3-368.2c32.6-32.6 75.3-51.5 120-53 43.7-1.5 84.6 14 114.2 43.6 61 61 57.7 163.6-6.4 230.9L453.5 760.5c-21 21-49.1 32.6-79.1 32.6-30 0-58.1-11.6-79.2-32.6-21-21-32.6-49.1-32.6-79.2 0-30 11.6-58.1 32.6-79.1l186-186c10.9-10.9 10.9-28.6 0-39.6-10.9-10.9-28.6-10.9-39.6 0l-186 186c-31.6 31.6-49 73.8-49 118.7 0 45 17.4 87.1 49 118.7 31.6 31.6 73.8 49 118.7 49 45 0 87.1-17.4 118.8-49.1l358.1-361.3c0.4-0.4 0.9-0.6 1.3-1 0.9-0.9 1.7-2 2.6-2.9l4-4.1c1.1-0.9 2-2.1 2.8-3.2z" fill="#666666" p-id="11280"></path></svg>